<?xml version="1.0" encoding="utf-8" ?>
<svg baseProfile="full" height="160" version="1.1" width="380" xmlns="http://www.w3.org/2000/svg" xmlns:ev="http://www.w3.org/2001/xml-events" xmlns:xlink="http://www.w3.org/1999/xlink"><defs /><rect fill="white" height="20" stroke="black" width="20" x="0" y="0" /><rect fill="white" height="20" stroke="black" width="20" x="20" y="0" /><rect fill="white" height="20" stroke="black" width="20" x="40" y="0" /><rect fill="white" height="20" stroke="black" width="20" x="60" y="0" /><rect fill="white" height="20" stroke="black" width="20" x="80" y="0" /><rect fill="white" height="20" stroke="black" width="20" x="100" y="0" /><rect fill="white" height="20" stroke="black" width="20" x="120" y="0" /><rect fill="white" height="20" stroke="black" width="20" x="140" y="0" /><rect fill="white" height="20" stroke="black" width="20" x="0" y="20" /><rect fill="white" height="20" stroke="black" width="20" x="20" y="20" /><rect fill="white" height="20" stroke="black" width="20" x="40" y="20" /><rect fill="white" height="20" stroke="black" width="20" x="60" y="20" /><rect fill="white" height="20" stroke="black" width="20" x="80" y="20" /><rect fill="white" height="20" stroke="black" width="20" x="100" y="20" /><rect fill="white" height="20" stroke="black" width="20" x="120" y="20" /><rect fill="white" height="20" stroke="black" width="20" x="140" y="20" /><rect fill="white" height="20" stroke="black" width="20" x="0" y="40" /><rect fill="white" height="20" stroke="black" width="20" x="20" y="40" /><rect fill="white" height="20" stroke="black" width="20" x="40" y="40" /><rect fill="white" height="20" stroke="black" width="20" x="60" y="40" /><rect fill="white" height="20" stroke="black" width="20" x="80" y="40" /><rect fill="white" height="20" stroke="black" width="20" x="100" y="40" /><rect fill="white" height="20" stroke="black" width="20" x="120" y="40" /><rect fill="white" height="20" stroke="black" width="20" x="140" y="40" /><rect fill="white" height="20" stroke="black" width="20" x="0" y="60" /><rect fill="white" height="20" stroke="black" width="20" x="20" y="60" /><rect fill="white" height="20" stroke="black" width="20" x="40" y="60" /><rect fill="white" height="20" stroke="black" width="20" x="60" y="60" /><rect fill="white" height="20" stroke="black" width="20" x="80" y="60" /><rect fill="white" height="20" stroke="black" width="20" x="100" y="60" /><rect fill="white" height="20" stroke="black" width="20" x="120" y="60" /><rect fill="white" height="20" stroke="black" width="20" x="140" y="60" /><rect fill="white" height="20" stroke="black" width="20" x="0" y="80" /><rect fill="white" height="20" stroke="black" width="20" x="20" y="80" /><rect fill="white" height="20" stroke="black" width="20" x="40" y="80" /><rect fill="white" height="20" stroke="black" width="20" x="60" y="80" /><rect fill="white" height="20" stroke="black" width="20" x="80" y="80" /><rect fill="white" height="20" stroke="black" width="20" x="100" y="80" /><rect fill="white" height="20" stroke="black" width="20" x="120" y="80" /><rect fill="white" height="20" stroke="black" width="20" x="140" y="80" /><rect fill="white" height="20" stroke="black" width="20" x="0" y="100" /><rect fill="white" height="20" stroke="black" width="20" x="20" y="100" /><rect fill="white" height="20" stroke="black" width="20" x="40" y="100" /><rect fill="white" height="20" stroke="black" width="20" x="60" y="100" /><rect fill="white" height="20" stroke="black" width="20" x="80" y="100" /><rect fill="white" height="20" stroke="black" width="20" x="100" y="100" /><rect fill="white" height="20" stroke="black" width="20" x="120" y="100" /><rect fill="white" height="20" stroke="black" width="20" x="140" y="100" /><rect fill="white" height="20" stroke="black" width="20" x="0" y="120" /><rect fill="white" height="20" stroke="black" width="20" x="20" y="120" /><rect fill="white" height="20" stroke="black" width="20" x="40" y="120" /><rect fill="white" height="20" stroke="black" width="20" x="60" y="120" /><rect fill="white" height="20" stroke="black" width="20" x="80" y="120" /><rect fill="white" height="20" stroke="black" width="20" x="100" y="120" /><rect fill="white" height="20" stroke="black" width="20" x="120" y="120" /><rect fill="white" height="20" stroke="black" width="20" x="140" y="120" /><rect fill="white" height="20" stroke="black" width="20" x="0" y="140" /><rect fill="white" height="20" stroke="black" width="20" x="20" y="140" /><rect fill="white" height="20" stroke="black" width="20" x="40" y="140" /><rect fill="white" height="20" stroke="black" width="20" x="60" y="140" /><rect fill="white" height="20" stroke="black" width="20" x="80" y="140" /><rect fill="white" height="20" stroke="black" width="20" x="100" y="140" /><rect fill="white" height="20" stroke="black" width="20" x="120" y="140" /><rect fill="white" height="20" stroke="black" width="20" x="140" y="140" /><rect fill="white" height="20" stroke="black" width="20" x="220" y="0" /><rect fill="white" height="20" stroke="black" width="20" x="240" y="0" /><rect fill="white" height="20" stroke="black" width="20" x="260" y="0" /><rect fill="white" height="20" stroke="black" width="20" x="280" y="0" /><rect fill="white" height="20" stroke="black" width="20" x="300" y="0" /><rect fill="white" height="20" stroke="black" width="20" x="320" y="0" /><rect fill="white" height="20" stroke="black" width="20" x="340" y="0" /><rect fill="white" height="20" stroke="black" width="20" x="360" y="0" /><rect fill="white" height="20" stroke="black" width="20" x="220" y="20" /><rect fill="white" height="20" stroke="black" width="20" x="240" y="20" /><rect fill="white" height="20" stroke="black" width="20" x="260" y="20" /><rect fill="white" height="20" stroke="black" width="20" x="280" y="20" /><rect fill="white" height="20" stroke="black" width="20" x="300" y="20" /><rect fill="white" height="20" stroke="black" width="20" x="320" y="20" /><rect fill="white" height="20" stroke="black" width="20" x="340" y="20" /><rect fill="white" height="20" stroke="black" width="20" x="360" y="20" /><rect fill="white" height="20" stroke="black" width="20" x="220" y="40" /><rect fill="white" height="20" stroke="black" width="20" x="240" y="40" /><rect fill="white" height="20" stroke="black" width="20" x="260" y="40" /><rect fill="white" height="20" stroke="black" width="20" x="280" y="40" /><rect fill="white" height="20" stroke="black" width="20" x="300" y="40" /><rect fill="white" height="20" stroke="black" width="20" x="320" y="40" /><rect fill="white" height="20" stroke="black" width="20" x="340" y="40" /><rect fill="white" height="20" stroke="black" width="20" x="360" y="40" /><rect fill="white" height="20" stroke="black" width="20" x="220" y="60" /><rect fill="white" height="20" stroke="black" width="20" x="240" y="60" /><rect fill="white" height="20" stroke="black" width="20" x="260" y="60" /><rect fill="white" height="20" stroke="black" width="20" x="280" y="60" /><rect fill="white" height="20" stroke="black" width="20" x="300" y="60" /><rect fill="white" height="20" stroke="black" width="20" x="320" y="60" /><rect fill="white" height="20" stroke="black" width="20" x="340" y="60" /><rect fill="white" height="20" stroke="black" width="20" x="360" y="60" /><rect fill="white" height="20" stroke="black" width="20" x="220" y="80" /><rect fill="white" height="20" stroke="black" width="20" x="240" y="80" /><rect fill="white" height="20" stroke="black" width="20" x="260" y="80" /><rect fill="white" height="20" stroke="black" width="20" x="280" y="80" /><rect fill="white" height="20" stroke="black" width="20" x="300" y="80" /><rect fill="white" height="20" stroke="black" width="20" x="320" y="80" /><rect fill="white" height="20" stroke="black" width="20" x="340" y="80" /><rect fill="white" height="20" stroke="black" width="20" x="360" y="80" /><rect fill="white" height="20" stroke="black" width="20" x="220" y="100" /><rect fill="white" height="20" stroke="black" width="20" x="240" y="100" /><rect fill="white" height="20" stroke="black" width="20" x="260" y="100" /><rect fill="white" height="20" stroke="black" width="20" x="280" y="100" /><rect fill="white" height="20" stroke="black" width="20" x="300" y="100" /><rect fill="white" height="20" stroke="black" width="20" x="320" y="100" /><rect fill="white" height="20" stroke="black" width="20" x="340" y="100" /><rect fill="white" height="20" stroke="black" width="20" x="360" y="100" /><rect fill="white" height="20" stroke="black" width="20" x="220" y="120" /><rect fill="white" height="20" stroke="black" width="20" x="240" y="120" /><rect fill="white" height="20" stroke="black" width="20" x="260" y="120" /><rect fill="white" height="20" stroke="black" width="20" x="280" y="120" /><rect fill="white" height="20" stroke="black" width="20" x="300" y="120" /><rect fill="white" height="20" stroke="black" width="20" x="320" y="120" /><rect fill="white" height="20" stroke="black" width="20" x="340" y="120" /><rect fill="white" height="20" stroke="black" width="20" x="360" y="120" /><rect fill="white" height="20" stroke="black" width="20" x="220" y="140" /><rect fill="white" height="20" stroke="black" width="20" x="240" y="140" /><rect fill="white" height="20" stroke="black" width="20" x="260" y="140" /><rect fill="white" height="20" stroke="black" width="20" x="280" y="140" /><rect fill="white" height="20" stroke="black" width="20" x="300" y="140" /><rect fill="white" height="20" stroke="black" width="20" x="320" y="140" /><rect fill="white" height="20" stroke="black" width="20" x="340" y="140" /><rect fill="white" height="20" stroke="black" width="20" x="360" y="140" /><rect fill="rgb(175,175,255)" height="20" stroke="black" width="20" x="0" y="0" /><text alignment-baseline="central" font-size="8px" text-anchor="middle" x="10" y="5">T0</text><text alignment-baseline="central" font-size="8px" text-anchor="middle" x="10" y="15">V0</text><rect fill="rgb(175,175,255)" height="20" stroke="black" width="20" x="80" y="0" /><text alignment-baseline="central" font-size="8px" text-anchor="middle" x="90" y="5">T0</text><text alignment-baseline="central" font-size="8px" text-anchor="middle" x="90" y="15">V1</text><rect fill="rgb(175,175,255)" height="20" stroke="black" width="20" x="0" y="20" /><text alignment-baseline="central" font-size="8px" text-anchor="middle" x="10" y="25">T0</text><text alignment-baseline="central" font-size="8px" text-anchor="middle" x="10" y="35">V2</text><rect fill="rgb(175,175,255)" height="20" stroke="black" width="20" x="80" y="20" /><text alignment-baseline="central" font-size="8px" text-anchor="middle" x="90" y="25">T0</text><text alignment-baseline="central" font-size="8px" text-anchor="middle" x="90" y="35">V3</text><rect fill="rgb(175,175,255)" height="20" stroke="black" width="20" x="0" y="40" /><text alignment-baseline="central" font-size="8px" text-anchor="middle" x="10" y="45">T0</text><text alignment-baseline="central" font-size="8px" text-anchor="middle" x="10" y="55">V4</text><rect fill="rgb(175,175,255)" height="20" stroke="black" width="20" x="80" y="40" /><text alignment-baseline="central" font-size="8px" text-anchor="middle" x="90" y="45">T0</text><text alignment-baseline="central" font-size="8px" text-anchor="middle" x="90" y="55">V5</text><rect fill="rgb(175,175,255)" height="20" stroke="black" width="20" x="0" y="60" /><text alignment-baseline="central" font-size="8px" text-anchor="middle" x="10" y="65">T0</text><text alignment-baseline="central" font-size="8px" text-anchor="middle" x="10" y="75">V6</text><rect fill="rgb(175,175,255)" height="20" stroke="black" width="20" x="80" y="60" /><text alignment-baseline="central" font-size="8px" text-anchor="middle" x="90" y="65">T0</text><text alignment-baseline="central" font-size="8px" text-anchor="middle" x="90" y="75">V7</text><rect fill="rgb(175,255,175)" height="20" stroke="black" width="20" x="0" y="80" /><text alignment-baseline="central" font-size="8px" text-anchor="middle" x="10" y="85">T1</text><text alignment-baseline="central" font-size="8px" text-anchor="middle" x="10" y="95">V0</text><rect fill="rgb(175,255,175)" height="20" stroke="black" width="20" x="80" y="80" /><text alignment-baseline="central" font-size="8px" text-anchor="middle" x="90" y="85">T1</text><text alignment-baseline="central" font-size="8px" text-anchor="middle" x="90" y="95">V1</text><rect fill="rgb(175,255,175)" height="20" stroke="black" width="20" x="0" y="100" /><text alignment-baseline="central" font-size="8px" text-anchor="middle" x="10" y="105">T1</text><text alignment-baseline="central" font-size="8px" text-anchor="middle" x="10" y="115">V2</text><rect fill="rgb(175,255,175)" height="20" stroke="black" width="20" x="80" y="100" /><text alignment-baseline="central" font-size="8px" text-anchor="middle" x="90" y="105">T1</text><text alignment-baseline="central" font-size="8px" text-anchor="middle" x="90" y="115">V3</text><rect fill="rgb(175,255,175)" height="20" stroke="black" width="20" x="0" y="120" /><text alignment-baseline="central" font-size="8px" text-anchor="middle" x="10" y="125">T1</text><text alignment-baseline="central" font-size="8px" text-anchor="middle" x="10" y="135">V4</text><rect fill="rgb(175,255,175)" height="20" stroke="black" width="20" x="80" y="120" /><text alignment-baseline="central" font-size="8px" text-anchor="middle" x="90" y="125">T1</text><text alignment-baseline="central" font-size="8px" text-anchor="middle" x="90" y="135">V5</text><rect fill="rgb(175,255,175)" height="20" stroke="black" width="20" x="0" y="140" /><text alignment-baseline="central" font-size="8px" text-anchor="middle" x="10" y="145">T1</text><text alignment-baseline="central" font-size="8px" text-anchor="middle" x="10" y="155">V6</text><rect fill="rgb(175,255,175)" height="20" stroke="black" width="20" x="80" y="140" /><text alignment-baseline="central" font-size="8px" text-anchor="middle" x="90" y="145">T1</text><text alignment-baseline="central" font-size="8px" text-anchor="middle" x="90" y="155">V7</text><rect fill="rgb(255,255,175)" height="20" stroke="black" width="20" x="20" y="0" /><text alignment-baseline="central" font-size="8px" text-anchor="middle" x="30" y="5">T2</text><text alignment-baseline="central" font-size="8px" text-anchor="middle" x="30" y="15">V0</text><rect fill="rgb(255,255,175)" height="20" stroke="black" width="20" x="100" y="0" /><text alignment-baseline="central" font-size="8px" text-anchor="middle" x="110" y="5">T2</text><text alignment-baseline="central" font-size="8px" text-anchor="middle" x="110" y="15">V1</text><rect fill="rgb(255,255,175)" height="20" stroke="black" width="20" x="20" y="20" /><text alignment-baseline="central" font-size="8px" text-anchor="middle" x="30" y="25">T2</text><text alignment-baseline="central" font-size="8px" text-anchor="middle" x="30" y="35">V2</text><rect fill="rgb(255,255,175)" height="20" stroke="black" width="20" x="100" y="20" /><text alignment-baseline="central" font-size="8px" text-anchor="middle" x="110" y="25">T2</text><text alignment-baseline="central" font-size="8px" text-anchor="middle" x="110" y="35">V3</text><rect fill="rgb(255,255,175)" height="20" stroke="black" width="20" x="20" y="40" /><text alignment-baseline="central" font-size="8px" text-anchor="middle" x="30" y="45">T2</text><text alignment-baseline="central" font-size="8px" text-anchor="middle" x="30" y="55">V4</text><rect fill="rgb(255,255,175)" height="20" stroke="black" width="20" x="100" y="40" /><text alignment-baseline="central" font-size="8px" text-anchor="middle" x="110" y="45">T2</text><text alignment-baseline="central" font-size="8px" text-anchor="middle" x="110" y="55">V5</text><rect fill="rgb(255,255,175)" height="20" stroke="black" width="20" x="20" y="60" /><text alignment-baseline="central" font-size="8px" text-anchor="middle" x="30" y="65">T2</text><text alignment-baseline="central" font-size="8px" text-anchor="middle" x="30" y="75">V6</text><rect fill="rgb(255,255,175)" height="20" stroke="black" width="20" x="100" y="60" /><text alignment-baseline="central" font-size="8px" text-anchor="middle" x="110" y="65">T2</text><text alignment-baseline="central" font-size="8px" text-anchor="middle" x="110" y="75">V7</text><rect fill="rgb(255,175,175)" height="20" stroke="black" width="20" x="20" y="80" /><text alignment-baseline="central" font-size="8px" text-anchor="middle" x="30" y="85">T3</text><text alignment-baseline="central" font-size="8px" text-anchor="middle" x="30" y="95">V0</text><rect fill="rgb(255,175,175)" height="20" stroke="black" width="20" x="100" y="80" /><text alignment-baseline="central" font-size="8px" text-anchor="middle" x="110" y="85">T3</text><text alignment-baseline="central" font-size="8px" text-anchor="middle" x="110" y="95">V1</text><rect fill="rgb(255,175,175)" height="20" stroke="black" width="20" x="20" y="100" /><text alignment-baseline="central" font-size="8px" text-anchor="middle" x="30" y="105">T3</text><text alignment-baseline="central" font-size="8px" text-anchor="middle" x="30" y="115">V2</text><rect fill="rgb(255,175,175)" height="20" stroke="black" width="20" x="100" y="100" /><text alignment-baseline="central" font-size="8px" text-anchor="middle" x="110" y="105">T3</text><text alignment-baseline="central" font-size="8px" text-anchor="middle" x="110" y="115">V3</text><rect fill="rgb(255,175,175)" height="20" stroke="black" width="20" x="20" y="120" /><text alignment-baseline="central" font-size="8px" text-anchor="middle" x="30" y="125">T3</text><text alignment-baseline="central" font-size="8px" text-anchor="middle" x="30" y="135">V4</text><rect fill="rgb(255,175,175)" height="20" stroke="black" width="20" x="100" y="120" /><text alignment-baseline="central" font-size="8px" text-anchor="middle" x="110" y="125">T3</text><text alignment-baseline="central" font-size="8px" text-anchor="middle" x="110" y="135">V5</text><rect fill="rgb(255,175,175)" height="20" stroke="black" width="20" x="20" y="140" /><text alignment-baseline="central" font-size="8px" text-anchor="middle" x="30" y="145">T3</text><text alignment-baseline="central" font-size="8px" text-anchor="middle" x="30" y="155">V6</text><rect fill="rgb(255,175,175)" height="20" stroke="black" width="20" x="100" y="140" /><text alignment-baseline="central" font-size="8px" text-anchor="middle" x="110" y="145">T3</text><text alignment-baseline="central" font-size="8px" text-anchor="middle" x="110" y="155">V7</text><rect fill="rgb(210,210,255)" height="20" stroke="black" width="20" x="40" y="0" /><text alignment-baseline="central" font-size="8px" text-anchor="middle" x="50" y="5">T4</text><text alignment-baseline="central" font-size="8px" text-anchor="middle" x="50" y="15">V0</text><rect fill="rgb(210,210,255)" height="20" stroke="black" width="20" x="120" y="0" /><text alignment-baseline="central" font-size="8px" text-anchor="middle" x="130" y="5">T4</text><text alignment-baseline="central" font-size="8px" text-anchor="middle" x="130" y="15">V1</text><rect fill="rgb(210,210,255)" height="20" stroke="black" width="20" x="40" y="20" /><text alignment-baseline="central" font-size="8px" text-anchor="middle" x="50" y="25">T4</text><text alignment-baseline="central" font-size="8px" text-anchor="middle" x="50" y="35">V2</text><rect fill="rgb(210,210,255)" height="20" stroke="black" width="20" x="120" y="20" /><text alignment-baseline="central" font-size="8px" text-anchor="middle" x="130" y="25">T4</text><text alignment-baseline="central" font-size="8px" text-anchor="middle" x="130" y="35">V3</text><rect fill="rgb(210,210,255)" height="20" stroke="black" width="20" x="40" y="40" /><text alignment-baseline="central" font-size="8px" text-anchor="middle" x="50" y="45">T4</text><text alignment-baseline="central" font-size="8px" text-anchor="middle" x="50" y="55">V4</text><rect fill="rgb(210,210,255)" height="20" stroke="black" width="20" x="120" y="40" /><text alignment-baseline="central" font-size="8px" text-anchor="middle" x="130" y="45">T4</text><text alignment-baseline="central" font-size="8px" text-anchor="middle" x="130" y="55">V5</text><rect fill="rgb(210,210,255)" height="20" stroke="black" width="20" x="40" y="60" /><text alignment-baseline="central" font-size="8px" text-anchor="middle" x="50" y="65">T4</text><text alignment-baseline="central" font-size="8px" text-anchor="middle" x="50" y="75">V6</text><rect fill="rgb(210,210,255)" height="20" stroke="black" width="20" x="120" y="60" /><text alignment-baseline="central" font-size="8px" text-anchor="middle" x="130" y="65">T4</text><text alignment-baseline="central" font-size="8px" text-anchor="middle" x="130" y="75">V7</text><rect fill="rgb(210,255,210)" height="20" stroke="black" width="20" x="40" y="80" /><text alignment-baseline="central" font-size="8px" text-anchor="middle" x="50" y="85">T5</text><text alignment-baseline="central" font-size="8px" text-anchor="middle" x="50" y="95">V0</text><rect fill="rgb(210,255,210)" height="20" stroke="black" width="20" x="120" y="80" /><text alignment-baseline="central" font-size="8px" text-anchor="middle" x="130" y="85">T5</text><text alignment-baseline="central" font-size="8px" text-anchor="middle" x="130" y="95">V1</text><rect fill="rgb(210,255,210)" height="20" stroke="black" width="20" x="40" y="100" /><text alignment-baseline="central" font-size="8px" text-anchor="middle" x="50" y="105">T5</text><text alignment-baseline="central" font-size="8px" text-anchor="middle" x="50" y="115">V2</text><rect fill="rgb(210,255,210)" height="20" stroke="black" width="20" x="120" y="100" /><text alignment-baseline="central" font-size="8px" text-anchor="middle" x="130" y="105">T5</text><text alignment-baseline="central" font-size="8px" text-anchor="middle" x="130" y="115">V3</text><rect fill="rgb(210,255,210)" height="20" stroke="black" width="20" x="40" y="120" /><text alignment-baseline="central" font-size="8px" text-anchor="middle" x="50" y="125">T5</text><text alignment-baseline="central" font-size="8px" text-anchor="middle" x="50" y="135">V4</text><rect fill="rgb(210,255,210)" height="20" stroke="black" width="20" x="120" y="120" /><text alignment-baseline="central" font-size="8px" text-anchor="middle" x="130" y="125">T5</text><text alignment-baseline="central" font-size="8px" text-anchor="middle" x="130" y="135">V5</text><rect fill="rgb(210,255,210)" height="20" stroke="black" width="20" x="40" y="140" /><text alignment-baseline="central" font-size="8px" text-anchor="middle" x="50" y="145">T5</text><text alignment-baseline="central" font-size="8px" text-anchor="middle" x="50" y="155">V6</text><rect fill="rgb(210,255,210)" height="20" stroke="black" width="20" x="120" y="140" /><text alignment-baseline="central" font-size="8px" text-anchor="middle" x="130" y="145">T5</text><text alignment-baseline="central" font-size="8px" text-anchor="middle" x="130" y="155">V7</text><rect fill="rgb(255,255,210)" height="20" stroke="black" width="20" x="60" y="0" /><text alignment-baseline="central" font-size="8px" text-anchor="middle" x="70" y="5">T6</text><text alignment-baseline="central" font-size="8px" text-anchor="middle" x="70" y="15">V0</text><rect fill="rgb(255,255,210)" height="20" stroke="black" width="20" x="140" y="0" /><text alignment-baseline="central" font-size="8px" text-anchor="middle" x="150" y="5">T6</text><text alignment-baseline="central" font-size="8px" text-anchor="middle" x="150" y="15">V1</text><rect fill="rgb(255,255,210)" height="20" stroke="black" width="20" x="60" y="20" /><text alignment-baseline="central" font-size="8px" text-anchor="middle" x="70" y="25">T6</text><text alignment-baseline="central" font-size="8px" text-anchor="middle" x="70" y="35">V2</text><rect fill="rgb(255,255,210)" height="20" stroke="black" width="20" x="140" y="20" /><text alignment-baseline="central" font-size="8px" text-anchor="middle" x="150" y="25">T6</text><text alignment-baseline="central" font-size="8px" text-anchor="middle" x="150" y="35">V3</text><rect fill="rgb(255,255,210)" height="20" stroke="black" width="20" x="60" y="40" /><text alignment-baseline="central" font-size="8px" text-anchor="middle" x="70" y="45">T6</text><text alignment-baseline="central" font-size="8px" text-anchor="middle" x="70" y="55">V4</text><rect fill="rgb(255,255,210)" height="20" stroke="black" width="20" x="140" y="40" /><text alignment-baseline="central" font-size="8px" text-anchor="middle" x="150" y="45">T6</text><text alignment-baseline="central" font-size="8px" text-anchor="middle" x="150" y="55">V5</text><rect fill="rgb(255,255,210)" height="20" stroke="black" width="20" x="60" y="60" /><text alignment-baseline="central" font-size="8px" text-anchor="middle" x="70" y="65">T6</text><text alignment-baseline="central" font-size="8px" text-anchor="middle" x="70" y="75">V6</text><rect fill="rgb(255,255,210)" height="20" stroke="black" width="20" x="140" y="60" /><text alignment-baseline="central" font-size="8px" text-anchor="middle" x="150" y="65">T6</text><text alignment-baseline="central" font-size="8px" text-anchor="middle" x="150" y="75">V7</text><rect fill="rgb(255,210,210)" height="20" stroke="black" width="20" x="60" y="80" /><text alignment-baseline="central" font-size="8px" text-anchor="middle" x="70" y="85">T7</text><text alignment-baseline="central" font-size="8px" text-anchor="middle" x="70" y="95">V0</text><rect fill="rgb(255,210,210)" height="20" stroke="black" width="20" x="140" y="80" /><text alignment-baseline="central" font-size="8px" text-anchor="middle" x="150" y="85">T7</text><text alignment-baseline="central" font-size="8px" text-anchor="middle" x="150" y="95">V1</text><rect fill="rgb(255,210,210)" height="20" stroke="black" width="20" x="60" y="100" /><text alignment-baseline="central" font-size="8px" text-anchor="middle" x="70" y="105">T7</text><text alignment-baseline="central" font-size="8px" text-anchor="middle" x="70" y="115">V2</text><rect fill="rgb(255,210,210)" height="20" stroke="black" width="20" x="140" y="100" /><text alignment-baseline="central" font-size="8px" text-anchor="middle" x="150" y="105">T7</text><text alignment-baseline="central" font-size="8px" text-anchor="middle" x="150" y="115">V3</text><rect fill="rgb(255,210,210)" height="20" stroke="black" width="20" x="60" y="120" /><text alignment-baseline="central" font-size="8px" text-anchor="middle" x="70" y="125">T7</text><text alignment-baseline="central" font-size="8px" text-anchor="middle" x="70" y="135">V4</text><rect fill="rgb(255,210,210)" height="20" stroke="black" width="20" x="140" y="120" /><text alignment-baseline="central" font-size="8px" text-anchor="middle" x="150" y="125">T7</text><text alignment-baseline="central" font-size="8px" text-anchor="middle" x="150" y="135">V5</text><rect fill="rgb(255,210,210)" height="20" stroke="black" width="20" x="60" y="140" /><text alignment-baseline="central" font-size="8px" text-anchor="middle" x="70" y="145">T7</text><text alignment-baseline="central" font-size="8px" text-anchor="middle" x="70" y="155">V6</text><rect fill="rgb(255,210,210)" height="20" stroke="black" width="20" x="140" y="140" /><text alignment-baseline="central" font-size="8px" text-anchor="middle" x="150" y="145">T7</text><text alignment-baseline="central" font-size="8px" text-anchor="middle" x="150" y="155">V7</text><rect fill="rgb(175,175,255)" height="20" stroke="black" width="20" x="220" y="0" /><text alignment-baseline="central" font-size="8px" text-anchor="middle" x="230" y="5">T0</text><text alignment-baseline="central" font-size="8px" text-anchor="middle" x="230" y="15">V0</text><rect fill="rgb(175,175,255)" height="20" stroke="black" width="20" x="300" y="0" /><text alignment-baseline="central" font-size="8px" text-anchor="middle" x="310" y="5">T0</text><text alignment-baseline="central" font-size="8px" text-anchor="middle" x="310" y="15">V1</text><rect fill="rgb(175,255,175)" height="20" stroke="black" width="20" x="220" y="20" /><text alignment-baseline="central" font-size="8px" text-anchor="middle" x="230" y="25">T1</text><text alignment-baseline="central" font-size="8px" text-anchor="middle" x="230" y="35">V0</text><rect fill="rgb(175,255,175)" height="20" stroke="black" width="20" x="300" y="20" /><text alignment-baseline="central" font-size="8px" text-anchor="middle" x="310" y="25">T1</text><text alignment-baseline="central" font-size="8px" text-anchor="middle" x="310" y="35">V1</text><rect fill="rgb(255,255,175)" height="20" stroke="black" width="20" x="220" y="40" /><text alignment-baseline="central" font-size="8px" text-anchor="middle" x="230" y="45">T2</text><text alignment-baseline="central" font-size="8px" text-anchor="middle" x="230" y="55">V0</text><rect fill="rgb(255,255,175)" height="20" stroke="black" width="20" x="300" y="40" /><text alignment-baseline="central" font-size="8px" text-anchor="middle" x="310" y="45">T2</text><text alignment-baseline="central" font-size="8px" text-anchor="middle" x="310" y="55">V1</text><rect fill="rgb(255,175,175)" height="20" stroke="black" width="20" x="220" y="60" /><text alignment-baseline="central" font-size="8px" text-anchor="middle" x="230" y="65">T3</text><text alignment-baseline="central" font-size="8px" text-anchor="middle" x="230" y="75">V0</text><rect fill="rgb(255,175,175)" height="20" stroke="black" width="20" x="300" y="60" /><text alignment-baseline="central" font-size="8px" text-anchor="middle" x="310" y="65">T3</text><text alignment-baseline="central" font-size="8px" text-anchor="middle" x="310" y="75">V1</text><rect fill="rgb(210,210,255)" height="20" stroke="black" width="20" x="220" y="80" /><text alignment-baseline="central" font-size="8px" text-anchor="middle" x="230" y="85">T4</text><text alignment-baseline="central" font-size="8px" text-anchor="middle" x="230" y="95">V0</text><rect fill="rgb(210,210,255)" height="20" stroke="black" width="20" x="300" y="80" /><text alignment-baseline="central" font-size="8px" text-anchor="middle" x="310" y="85">T4</text><text alignment-baseline="central" font-size="8px" text-anchor="middle" x="310" y="95">V1</text><rect fill="rgb(210,255,210)" height="20" stroke="black" width="20" x="220" y="100" /><text alignment-baseline="central" font-size="8px" text-anchor="middle" x="230" y="105">T5</text><text alignment-baseline="central" font-size="8px" text-anchor="middle" x="230" y="115">V0</text><rect fill="rgb(210,255,210)" height="20" stroke="black" width="20" x="300" y="100" /><text alignment-baseline="central" font-size="8px" text-anchor="middle" x="310" y="105">T5</text><text alignment-baseline="central" font-size="8px" text-anchor="middle" x="310" y="115">V1</text><rect fill="rgb(255,255,210)" height="20" stroke="black" width="20" x="220" y="120" /><text alignment-baseline="central" font-size="8px" text-anchor="middle" x="230" y="125">T6</text><text alignment-baseline="central" font-size="8px" text-anchor="middle" x="230" y="135">V0</text><rect fill="rgb(255,255,210)" height="20" stroke="black" width="20" x="300" y="120" /><text alignment-baseline="central" font-size="8px" text-anchor="middle" x="310" y="125">T6</text><text alignment-baseline="central" font-size="8px" text-anchor="middle" x="310" y="135">V1</text><rect fill="rgb(255,210,210)" height="20" stroke="black" width="20" x="220" y="140" /><text alignment-baseline="central" font-size="8px" text-anchor="middle" x="230" y="145">T7</text><text alignment-baseline="central" font-size="8px" text-anchor="middle" x="230" y="155">V0</text><rect fill="rgb(255,210,210)" height="20" stroke="black" width="20" x="300" y="140" /><text alignment-baseline="central" font-size="8px" text-anchor="middle" x="310" y="145">T7</text><text alignment-baseline="central" font-size="8px" text-anchor="middle" x="310" y="155">V1</text><rect fill="rgb(175,175,255)" height="20" stroke="black" width="20" x="240" y="0" /><text alignment-baseline="central" font-size="8px" text-anchor="middle" x="250" y="5">T8</text><text alignment-baseline="central" font-size="8px" text-anchor="middle" x="250" y="15">V0</text><rect fill="rgb(175,175,255)" height="20" stroke="black" width="20" x="320" y="0" /><text alignment-baseline="central" font-size="8px" text-anchor="middle" x="330" y="5">T8</text><text alignment-baseline="central" font-size="8px" text-anchor="middle" x="330" y="15">V1</text><rect fill="rgb(175,255,175)" height="20" stroke="black" width="20" x="240" y="20" /><text alignment-baseline="central" font-size="8px" text-anchor="middle" x="250" y="25">T9</text><text alignment-baseline="central" font-size="8px" text-anchor="middle" x="250" y="35">V0</text><rect fill="rgb(175,255,175)" height="20" stroke="black" width="20" x="320" y="20" /><text alignment-baseline="central" font-size="8px" text-anchor="middle" x="330" y="25">T9</text><text alignment-baseline="central" font-size="8px" text-anchor="middle" x="330" y="35">V1</text><rect fill="rgb(255,255,175)" height="20" stroke="black" width="20" x="240" y="40" /><text alignment-baseline="central" font-size="8px" text-anchor="middle" x="250" y="45">T10</text><text alignment-baseline="central" font-size="8px" text-anchor="middle" x="250" y="55">V0</text><rect fill="rgb(255,255,175)" height="20" stroke="black" width="20" x="320" y="40" /><text alignment-baseline="central" font-size="8px" text-anchor="middle" x="330" y="45">T10</text><text alignment-baseline="central" font-size="8px" text-anchor="middle" x="330" y="55">V1</text><rect fill="rgb(255,175,175)" height="20" stroke="black" width="20" x="240" y="60" /><text alignment-baseline="central" font-size="8px" text-anchor="middle" x="250" y="65">T11</text><text alignment-baseline="central" font-size="8px" text-anchor="middle" x="250" y="75">V0</text><rect fill="rgb(255,175,175)" height="20" stroke="black" width="20" x="320" y="60" /><text alignment-baseline="central" font-size="8px" text-anchor="middle" x="330" y="65">T11</text><text alignment-baseline="central" font-size="8px" text-anchor="middle" x="330" y="75">V1</text><rect fill="rgb(210,210,255)" height="20" stroke="black" width="20" x="240" y="80" /><text alignment-baseline="central" font-size="8px" text-anchor="middle" x="250" y="85">T12</text><text alignment-baseline="central" font-size="8px" text-anchor="middle" x="250" y="95">V0</text><rect fill="rgb(210,210,255)" height="20" stroke="black" width="20" x="320" y="80" /><text alignment-baseline="central" font-size="8px" text-anchor="middle" x="330" y="85">T12</text><text alignment-baseline="central" font-size="8px" text-anchor="middle" x="330" y="95">V1</text><rect fill="rgb(210,255,210)" height="20" stroke="black" width="20" x="240" y="100" /><text alignment-baseline="central" font-size="8px" text-anchor="middle" x="250" y="105">T13</text><text alignment-baseline="central" font-size="8px" text-anchor="middle" x="250" y="115">V0</text><rect fill="rgb(210,255,210)" height="20" stroke="black" width="20" x="320" y="100" /><text alignment-baseline="central" font-size="8px" text-anchor="middle" x="330" y="105">T13</text><text alignment-baseline="central" font-size="8px" text-anchor="middle" x="330" y="115">V1</text><rect fill="rgb(255,255,210)" height="20" stroke="black" width="20" x="240" y="120" /><text alignment-baseline="central" font-size="8px" text-anchor="middle" x="250" y="125">T14</text><text alignment-baseline="central" font-size="8px" text-anchor="middle" x="250" y="135">V0</text><rect fill="rgb(255,255,210)" height="20" stroke="black" width="20" x="320" y="120" /><text alignment-baseline="central" font-size="8px" text-anchor="middle" x="330" y="125">T14</text><text alignment-baseline="central" font-size="8px" text-anchor="middle" x="330" y="135">V1</text><rect fill="rgb(255,210,210)" height="20" stroke="black" width="20" x="240" y="140" /><text alignment-baseline="central" font-size="8px" text-anchor="middle" x="250" y="145">T15</text><text alignment-baseline="central" font-size="8px" text-anchor="middle" x="250" y="155">V0</text><rect fill="rgb(255,210,210)" height="20" stroke="black" width="20" x="320" y="140" /><text alignment-baseline="central" font-size="8px" text-anchor="middle" x="330" y="145">T15</text><text alignment-baseline="central" font-size="8px" text-anchor="middle" x="330" y="155">V1</text><rect fill="rgb(175,175,255)" height="20" stroke="black" width="20" x="260" y="0" /><text alignment-baseline="central" font-size="8px" text-anchor="middle" x="270" y="5">T16</text><text alignment-baseline="central" font-size="8px" text-anchor="middle" x="270" y="15">V0</text><rect fill="rgb(175,175,255)" height="20" stroke="black" width="20" x="340" y="0" /><text alignment-baseline="central" font-size="8px" text-anchor="middle" x="350" y="5">T16</text><text alignment-baseline="central" font-size="8px" text-anchor="middle" x="350" y="15">V1</text><rect fill="rgb(175,255,175)" height="20" stroke="black" width="20" x="260" y="20" /><text alignment-baseline="central" font-size="8px" text-anchor="middle" x="270" y="25">T17</text><text alignment-baseline="central" font-size="8px" text-anchor="middle" x="270" y="35">V0</text><rect fill="rgb(175,255,175)" height="20" stroke="black" width="20" x="340" y="20" /><text alignment-baseline="central" font-size="8px" text-anchor="middle" x="350" y="25">T17</text><text alignment-baseline="central" font-size="8px" text-anchor="middle" x="350" y="35">V1</text><rect fill="rgb(255,255,175)" height="20" stroke="black" width="20" x="260" y="40" /><text alignment-baseline="central" font-size="8px" text-anchor="middle" x="270" y="45">T18</text><text alignment-baseline="central" font-size="8px" text-anchor="middle" x="270" y="55">V0</text><rect fill="rgb(255,255,175)" height="20" stroke="black" width="20" x="340" y="40" /><text alignment-baseline="central" font-size="8px" text-anchor="middle" x="350" y="45">T18</text><text alignment-baseline="central" font-size="8px" text-anchor="middle" x="350" y="55">V1</text><rect fill="rgb(255,175,175)" height="20" stroke="black" width="20" x="260" y="60" /><text alignment-baseline="central" font-size="8px" text-anchor="middle" x="270" y="65">T19</text><text alignment-baseline="central" font-size="8px" text-anchor="middle" x="270" y="75">V0</text><rect fill="rgb(255,175,175)" height="20" stroke="black" width="20" x="340" y="60" /><text alignment-baseline="central" font-size="8px" text-anchor="middle" x="350" y="65">T19</text><text alignment-baseline="central" font-size="8px" text-anchor="middle" x="350" y="75">V1</text><rect fill="rgb(210,210,255)" height="20" stroke="black" width="20" x="260" y="80" /><text alignment-baseline="central" font-size="8px" text-anchor="middle" x="270" y="85">T20</text><text alignment-baseline="central" font-size="8px" text-anchor="middle" x="270" y="95">V0</text><rect fill="rgb(210,210,255)" height="20" stroke="black" width="20" x="340" y="80" /><text alignment-baseline="central" font-size="8px" text-anchor="middle" x="350" y="85">T20</text><text alignment-baseline="central" font-size="8px" text-anchor="middle" x="350" y="95">V1</text><rect fill="rgb(210,255,210)" height="20" stroke="black" width="20" x="260" y="100" /><text alignment-baseline="central" font-size="8px" text-anchor="middle" x="270" y="105">T21</text><text alignment-baseline="central" font-size="8px" text-anchor="middle" x="270" y="115">V0</text><rect fill="rgb(210,255,210)" height="20" stroke="black" width="20" x="340" y="100" /><text alignment-baseline="central" font-size="8px" text-anchor="middle" x="350" y="105">T21</text><text alignment-baseline="central" font-size="8px" text-anchor="middle" x="350" y="115">V1</text><rect fill="rgb(255,255,210)" height="20" stroke="black" width="20" x="260" y="120" /><text alignment-baseline="central" font-size="8px" text-anchor="middle" x="270" y="125">T22</text><text alignment-baseline="central" font-size="8px" text-anchor="middle" x="270" y="135">V0</text><rect fill="rgb(255,255,210)" height="20" stroke="black" width="20" x="340" y="120" /><text alignment-baseline="central" font-size="8px" text-anchor="middle" x="350" y="125">T22</text><text alignment-baseline="central" font-size="8px" text-anchor="middle" x="350" y="135">V1</text><rect fill="rgb(255,210,210)" height="20" stroke="black" width="20" x="260" y="140" /><text alignment-baseline="central" font-size="8px" text-anchor="middle" x="270" y="145">T23</text><text alignment-baseline="central" font-size="8px" text-anchor="middle" x="270" y="155">V0</text><rect fill="rgb(255,210,210)" height="20" stroke="black" width="20" x="340" y="140" /><text alignment-baseline="central" font-size="8px" text-anchor="middle" x="350" y="145">T23</text><text alignment-baseline="central" font-size="8px" text-anchor="middle" x="350" y="155">V1</text><rect fill="rgb(175,175,255)" height="20" stroke="black" width="20" x="280" y="0" /><text alignment-baseline="central" font-size="8px" text-anchor="middle" x="290" y="5">T24</text><text alignment-baseline="central" font-size="8px" text-anchor="middle" x="290" y="15">V0</text><rect fill="rgb(175,175,255)" height="20" stroke="black" width="20" x="360" y="0" /><text alignment-baseline="central" font-size="8px" text-anchor="middle" x="370" y="5">T24</text><text alignment-baseline="central" font-size="8px" text-anchor="middle" x="370" y="15">V1</text><rect fill="rgb(175,255,175)" height="20" stroke="black" width="20" x="280" y="20" /><text alignment-baseline="central" font-size="8px" text-anchor="middle" x="290" y="25">T25</text><text alignment-baseline="central" font-size="8px" text-anchor="middle" x="290" y="35">V0</text><rect fill="rgb(175,255,175)" height="20" stroke="black" width="20" x="360" y="20" /><text alignment-baseline="central" font-size="8px" text-anchor="middle" x="370" y="25">T25</text><text alignment-baseline="central" font-size="8px" text-anchor="middle" x="370" y="35">V1</text><rect fill="rgb(255,255,175)" height="20" stroke="black" width="20" x="280" y="40" /><text alignment-baseline="central" font-size="8px" text-anchor="middle" x="290" y="45">T26</text><text alignment-baseline="central" font-size="8px" text-anchor="middle" x="290" y="55">V0</text><rect fill="rgb(255,255,175)" height="20" stroke="black" width="20" x="360" y="40" /><text alignment-baseline="central" font-size="8px" text-anchor="middle" x="370" y="45">T26</text><text alignment-baseline="central" font-size="8px" text-anchor="middle" x="370" y="55">V1</text><rect fill="rgb(255,175,175)" height="20" stroke="black" width="20" x="280" y="60" /><text alignment-baseline="central" font-size="8px" text-anchor="middle" x="290" y="65">T27</text><text alignment-baseline="central" font-size="8px" text-anchor="middle" x="290" y="75">V0</text><rect fill="rgb(255,175,175)" height="20" stroke="black" width="20" x="360" y="60" /><text alignment-baseline="central" font-size="8px" text-anchor="middle" x="370" y="65">T27</text><text alignment-baseline="central" font-size="8px" text-anchor="middle" x="370" y="75">V1</text><rect fill="rgb(210,210,255)" height="20" stroke="black" width="20" x="280" y="80" /><text alignment-baseline="central" font-size="8px" text-anchor="middle" x="290" y="85">T28</text><text alignment-baseline="central" font-size="8px" text-anchor="middle" x="290" y="95">V0</text><rect fill="rgb(210,210,255)" height="20" stroke="black" width="20" x="360" y="80" /><text alignment-baseline="central" font-size="8px" text-anchor="middle" x="370" y="85">T28</text><text alignment-baseline="central" font-size="8px" text-anchor="middle" x="370" y="95">V1</text><rect fill="rgb(210,255,210)" height="20" stroke="black" width="20" x="280" y="100" /><text alignment-baseline="central" font-size="8px" text-anchor="middle" x="290" y="105">T29</text><text alignment-baseline="central" font-size="8px" text-anchor="middle" x="290" y="115">V0</text><rect fill="rgb(210,255,210)" height="20" stroke="black" width="20" x="360" y="100" /><text alignment-baseline="central" font-size="8px" text-anchor="middle" x="370" y="105">T29</text><text alignment-baseline="central" font-size="8px" text-anchor="middle" x="370" y="115">V1</text><rect fill="rgb(255,255,210)" height="20" stroke="black" width="20" x="280" y="120" /><text alignment-baseline="central" font-size="8px" text-anchor="middle" x="290" y="125">T30</text><text alignment-baseline="central" font-size="8px" text-anchor="middle" x="290" y="135">V0</text><rect fill="rgb(255,255,210)" height="20" stroke="black" width="20" x="360" y="120" /><text alignment-baseline="central" font-size="8px" text-anchor="middle" x="370" y="125">T30</text><text alignment-baseline="central" font-size="8px" text-anchor="middle" x="370" y="135">V1</text><rect fill="rgb(255,210,210)" height="20" stroke="black" width="20" x="280" y="140" /><text alignment-baseline="central" font-size="8px" text-anchor="middle" x="290" y="145">T31</text><text alignment-baseline="central" font-size="8px" text-anchor="middle" x="290" y="155">V0</text><rect fill="rgb(255,210,210)" height="20" stroke="black" width="20" x="360" y="140" /><text alignment-baseline="central" font-size="8px" text-anchor="middle" x="370" y="145">T31</text><text alignment-baseline="central" font-size="8px" text-anchor="middle" x="370" y="155">V1</text></svg>